<svg width="2300" height="1262" viewBox="0 0 2300 1262" fill="none" xmlns="http://www.w3.org/2000/svg">
<g clip-path="url(#clip0_27574:24)">
<rect width="2300" height="1262" fill="white"/>
<path d="M489.208 604.738L489.208 1154.09L13.4572 879.413L489.208 604.738Z" stroke="#EBEBEB"/>
<circle cx="12.7393" cy="879.154" r="5" transform="rotate(-30 12.7393 879.154)" fill="#F2F2F2"/>
<circle cx="488.896" cy="1153.88" r="5" transform="rotate(-30 488.896 1153.88)" fill="#F2F2F2"/>
<circle cx="489.053" cy="604.154" r="5" transform="rotate(-30 489.053 604.154)" fill="#F2F2F2"/>
<path d="M617.594 46.3811L617.594 302.777L395.549 174.579L617.594 46.3811Z" stroke="#EBEBEB"/>
<path d="M1860.56 718.777L1860.56 462.381L2082.61 590.579L1860.56 718.777Z" stroke="#EBEBEB"/>
<path d="M1504.62 581.625L1028.87 856.299L1028.87 306.95L1504.62 581.625Z" stroke="#EBEBEB"/>
<circle cx="1028.74" cy="306.198" r="5" transform="rotate(30 1028.74 306.198)" fill="#F2F2F2"/>
<circle cx="1028.9" cy="855.926" r="5" transform="rotate(30 1028.9 855.926)" fill="#F2F2F2"/>
<circle cx="1505.05" cy="581.198" r="5" transform="rotate(30 1505.05 581.198)" fill="#F2F2F2"/>
</g>
<defs>
<clipPath id="clip0_27574:24">
<rect width="2300" height="1262" fill="white"/>
</clipPath>
</defs>
</svg>
