<svg width="28" height="27" viewBox="0 0 28 27" fill="#CDCDCD" xmlns="http://www.w3.org/2000/svg">
<path d="M14.1893 11.3786C15.2307 11.3786 16.0407 10.5108 16.0215 9.56578C16.0407 8.62078 15.25 7.73364 14.2086 7.73364C13.2057 7.73364 12.3765 8.54364 12.3765 9.5465C12.3765 10.5494 13.1865 11.3786 14.1893 11.3786Z"/>
<path d="M14.0354 0C6.5911 0 0.5354 6.05571 0.5354 13.5C0.5354 20.9636 6.5911 27 14.0354 27C21.4989 27 27.5354 20.9443 27.5354 13.5C27.5546 6.05571 21.4989 0 14.0354 0ZM14.2282 5.11071C16.6582 5.11071 18.6639 7.11643 18.6447 9.56571C18.6447 12.0343 16.6197 14.0207 14.1511 13.9821C11.7211 13.9436 9.77324 11.9571 9.77324 9.54643C9.77324 7.09714 11.7597 5.11071 14.2282 5.11071ZM19.1847 15.525C19.1847 15.5636 19.1654 15.5829 19.1654 15.6214C19.1075 16.0071 18.9147 16.3157 18.5868 16.5279C18.3747 16.6629 18.1432 16.7979 17.9118 16.9136C17.3332 17.2029 16.7161 17.4343 16.0797 17.5886C16.0025 17.6079 16.0025 17.6079 16.0604 17.6657C16.4075 18.0129 16.7739 18.3793 17.1211 18.7264C17.5647 19.17 18.0275 19.6329 18.4711 20.0764C19.1075 20.7129 18.9339 21.7736 18.1239 22.1593C17.9889 22.2364 17.8347 22.2557 17.6804 22.2943C17.6032 22.2943 17.5068 22.2943 17.4297 22.2943C17.4104 22.2943 17.3911 22.2943 17.3911 22.275C17.0825 22.2364 16.8318 22.0821 16.6004 21.87C15.8289 21.0986 15.0382 20.3079 14.2668 19.5364C14.2089 19.4786 14.2089 19.4786 14.1511 19.5364C13.3604 20.3271 12.589 21.0986 11.7982 21.8893C11.6632 22.0243 11.5282 22.1207 11.3547 22.1979C11.239 22.2557 11.104 22.275 10.9882 22.2943C10.9111 22.2943 10.834 22.2943 10.7375 22.2943C10.699 22.2943 10.6797 22.275 10.6411 22.275C10.1204 22.1786 9.77324 21.8893 9.61896 21.3879C9.46467 20.8864 9.58038 20.4429 9.94681 20.0764C10.2747 19.7486 10.5832 19.44 10.9111 19.1121C11.3932 18.63 11.8754 18.1479 12.3382 17.685C12.3961 17.6271 12.3961 17.6271 12.319 17.6079C12.2997 17.6079 12.2611 17.5886 12.2418 17.5886C11.374 17.3764 10.5832 17.0293 9.8311 16.5664C9.38753 16.2771 9.17538 15.8529 9.23324 15.3321C9.32967 14.3679 10.4097 13.8471 11.2197 14.3679C11.374 14.4643 11.509 14.5414 11.6825 14.6186C12.5697 15.0621 13.5147 15.255 14.4982 15.1971C14.9804 15.1779 15.4625 15.0814 15.9447 14.9271C16.4075 14.7729 16.8125 14.5607 17.2368 14.3293C17.9311 13.9243 18.8375 14.2521 19.1075 15.0043C19.1461 15.12 19.1654 15.2164 19.1847 15.3321C19.1847 15.39 19.1847 15.4479 19.1847 15.525Z"/>
</svg>
