<svg width="28" height="27" viewBox="0 0 28 27" fill="#CDCDCD" xmlns="http://www.w3.org/2000/svg">
<path d="M19.5256 15.7089C18.4139 14.6454 18.3345 14.6454 19.2874 13.4182C20.4785 11.8637 22.0667 9.90021 20.6374 9.90021H18.0168C17.5404 9.90021 17.461 10.2275 17.3022 10.6365C16.6669 12.191 15.3963 14.2363 14.9199 13.9091C14.4434 13.5818 14.6816 12.3546 14.6816 10.3911C14.7611 10.1456 14.6816 9.90021 14.5228 9.73658C14.364 9.57296 14.1258 9.40933 13.8876 9.40933C13.4905 9.32752 13.0935 9.24571 12.6964 9.24571C11.1876 9.24571 10.1553 9.90021 10.7112 9.98202C11.7435 10.1456 11.6641 12.4364 11.4259 13.4182C11.0288 15.1363 9.44062 12.1092 8.72594 10.5547C8.64653 10.1456 8.32889 9.90021 7.93184 9.90021H5.8672C5.54956 9.90021 5.31133 9.98202 5.31133 10.2275C5.31133 10.6365 7.29657 14.6454 9.12299 16.6907C10.9494 18.6542 12.7758 18.4906 14.0464 18.4906C14.2052 18.4906 14.364 18.4088 14.4434 18.327C14.5228 18.2452 14.6022 18.0815 14.6022 17.9179C14.6022 16.6089 15.0787 15.9544 15.9522 16.8543C16.9051 17.8361 17.1433 18.4906 18.3345 18.4906H20.4785C21.0344 18.4906 21.1932 18.327 21.1932 18.0815C21.2726 17.5088 20.3197 16.4453 19.5256 15.7089ZM13.8876 0.000819518C21.2726 0.164446 27.1489 6.30043 27.0695 13.7454C26.9901 21.1904 20.8756 27.081 13.4905 26.9992C6.02602 26.9173 0.0703125 20.945 0.0703125 13.5C0.149722 5.97318 6.34366 -0.0809936 13.8876 0.000819518Z"/>
</svg>
