<svg width="611" height="487" viewBox="0 0 611 487" fill="none" xmlns="http://www.w3.org/2000/svg">
<path opacity="0.2" d="M605.842 5.58398L331.167 481.334L56.4922 5.58398H605.842Z" stroke="white"/>
<path opacity="0.2" d="M326.148 203.75L165.5 482L4.85229 203.75H326.148Z" stroke="white"/>
<path d="M56 10C58.7614 10 61 7.76142 61 5C61 2.23858 58.7614 0 56 0C53.2386 0 51 2.23858 51 5C51 7.76142 53.2386 10 56 10Z" fill="white"/>
<path d="M5 209C7.76142 209 10 206.761 10 204C10 201.239 7.76142 199 5 199C2.23858 199 0 201.239 0 204C0 206.761 2.23858 209 5 209Z" fill="white"/>
<path d="M166 487C168.761 487 171 484.761 171 482C171 479.239 168.761 477 166 477C163.239 477 161 479.239 161 482C161 484.761 163.239 487 166 487Z" fill="white"/>
<path d="M331 486C333.761 486 336 483.761 336 481C336 478.239 333.761 476 331 476C328.239 476 326 478.239 326 481C326 483.761 328.239 486 331 486Z" fill="white"/>
<path d="M606 10C608.761 10 611 7.76142 611 5C611 2.23858 608.761 0 606 0C603.239 0 601 2.23858 601 5C601 7.76142 603.239 10 606 10Z" fill="white"/>
</svg>
